<svg xmlns="http://www.w3.org/2000/svg" version="1.1" xmlns:xlink="http://www.w3.org/1999/xlink" xmlns:svgjs="http://svgjs.dev/svgjs" width="1440" height="760" preserveAspectRatio="none" viewBox="0 0 1440 760"><g mask="url(&quot;#SvgjsMask1021&quot;)" fill="none"><rect width="1440" height="760" x="0" y="0" fill="rgba(135, 174, 216, 1)"></rect><path d="M1488 760L0 760 L0 496.09Q14.03 438.12, 72 452.15Q101.22 409.37, 144 438.59Q223.61 398.2, 264 477.81Q292.95 434.76, 336 463.72Q409.49 417.21, 456 490.7Q487.11 401.81, 576 432.91Q644.49 381.4, 696 449.9Q774.11 408.01, 816 486.12Q861.99 460.11, 888 506.09Q901.78 447.87, 960 461.65Q976.46 406.11, 1032 422.56Q1078.77 349.33, 1152 396.1Q1215.39 387.5, 1224 450.89Q1276.11 431, 1296 483.1Q1329.34 396.44, 1416 429.77Q1431.41 373.19, 1488 388.6z" fill="rgba(184, 220, 253, 1)"></path><path d="M1512 760L0 760 L0 498.33Q36.9 463.23, 72 500.12Q120.4 476.52, 144 524.92Q182.49 443.41, 264 481.9Q307.49 453.39, 336 496.88Q383.15 472.03, 408 519.18Q491.97 483.14, 528 567.11Q570.82 537.93, 600 580.75Q609.6 470.35, 720 479.94Q775.51 463.45, 792 518.96Q890.45 497.41, 912 595.87Q927.5 539.37, 984 554.87Q1007.14 506.01, 1056 529.16Q1084.55 485.71, 1128 514.26Q1181.09 495.35, 1200 548.43Q1237.91 466.34, 1320 504.24Q1350.71 462.96, 1392 493.67Q1476.66 458.34, 1512 543z" fill="rgba(209, 238, 255, 1)"></path><path d="M1488 760L0 760 L0 598.55Q41.68 568.23, 72 609.91Q158.04 575.95, 192 662Q237.25 587.25, 312 632.51Q372.13 620.64, 384 680.77Q450.83 627.6, 504 694.43Q505.49 623.91, 576 625.4Q590.07 567.47, 648 581.54Q720.27 533.81, 768 606.08Q846.44 564.52, 888 642.95Q916.19 599.14, 960 627.33Q979.8 575.13, 1032 594.94Q1116.65 559.6, 1152 644.25Q1228.53 600.77, 1272 677.3Q1281.09 614.38, 1344 623.47Q1385.59 593.06, 1416 634.65Q1470.16 616.81, 1488 670.96z" fill="rgba(215, 254, 255, 1)"></path><path d="M1536 760L0 760 L0 674.9Q49.77 652.67, 72 702.44Q159.98 670.42, 192 758.4Q241.32 735.72, 264 785.05Q297.58 698.63, 384 732.2Q393.91 670.12, 456 680.03Q525.08 629.11, 576 698.18Q641.88 692.06, 648 757.94Q660.75 698.69, 720 711.44Q771.98 643.42, 840 695.41Q890.42 673.83, 912 724.25Q999.07 691.32, 1032 778.39Q1048.1 674.49, 1152 690.59Q1181.28 647.87, 1224 677.15Q1301.87 635.02, 1344 712.89Q1388.95 685.85, 1416 730.8Q1488.98 683.78, 1536 756.76z" fill="white"></path></g><defs><mask id="SvgjsMask1021"><rect width="1440" height="760" fill="#ffffff"></rect></mask></defs></svg>