<svg xmlns="http://www.w3.org/2000/svg" version="1.1" xmlns:xlink="http://www.w3.org/1999/xlink" xmlns:svgjs="http://svgjs.dev/svgjs" width="700" height="100" preserveAspectRatio="none" viewBox="0 0 700 100"><g mask="url(&quot;#SvgjsMask1004&quot;)" fill="none"><rect width="700" height="100" x="0" y="0" fill="rgba(255, 249, 182, 1)"></rect><path d="M50 17.7C39.84 17.7 38.67 20.18 29.03 25C26.17 26.43 27.69 28.38 25 30.21C13.18 38.25 7.43 46.29 0 44.74C-5.07 43.68 0 34.87 0 25C0 12.5 -6.25 6.25 0 0C6.25 -6.25 12.5 0 25 0C37.5 0 37.5 0 50 0C62.5 0 62.5 0 75 0C87.5 0 87.5 0 100 0C112.5 0 112.5 0 125 0C137.5 0 137.5 0 150 0C159.62 0 159.7 -0.62 169.23 0C172.2 0.19 172.4 1.63 175 1.63C175.88 1.63 175.21 0.06 176.19 0C187.71 -0.75 188.1 0 200 0C212.5 0 212.5 0 225 0C234.89 0 241.23 -5.49 244.79 0C249.34 7.01 239.4 13.99 241.22 25C242.01 29.78 245.43 31.57 250 31.57C255.42 31.57 260.3 30.31 261.21 25C263.01 14.52 251.52 7.09 255.43 0C258.41 -5.41 265.22 0 275 0C287.5 0 287.5 0 300 0C312.5 0 312.5 0 325 0C337.5 0 337.5 0 350 0C362.5 0 362.5 0 375 0C387.5 0 387.5 0 400 0C410.36 0 413.58 -4.28 420.71 0C426.08 3.22 419.39 11.66 425 15C434.03 20.37 441.03 21.74 450 17.42C456.59 14.24 449.94 4.31 456.12 0C462.44 -4.4 465.56 0 475 0C485.32 0 486.48 -2.25 495.64 0C498.98 0.82 497.64 6.15 500 6.15C502.58 6.15 501.79 0.92 505.51 0C514.29 -2.16 515.26 0 525 0C537.5 0 537.5 0 550 0C562.5 0 562.5 0 575 0C583.9 0 584.45 -1.72 592.8 0C596.95 0.86 595.87 5.16 600 5.16C611.34 5.16 611.86 2.45 623.75 0C624.36 -0.13 624.38 0 625 0C637.5 0 637.5 0 650 0C662.5 0 662.5 0 675 0C687.5 0 693.2 -5.7 700 0C705.7 4.78 701.08 10.81 700 20.97C699.75 23.31 697.34 23.19 697.34 25C697.34 26.3 699.83 25.55 700 27.19C701.16 38.05 700 38.59 700 50C700 62.5 700 62.5 700 75C700 85.13 701.89 85.96 700 95.27C699.35 98.46 698.16 99.39 694.93 100C685.66 101.75 684.96 100 675 100C664.89 100 664.15 101.79 654.78 100C651.65 99.4 653.15 96.04 650 95.22C638.26 92.17 636.87 90.76 625 92.25C617.82 93.15 618.92 97.83 611.9 100C606.42 101.7 605.95 100 600 100C594.44 100 589.23 103.69 588.89 100C588.09 91.19 599.88 86.55 597.73 75C595.23 61.55 587.6 63.07 579.6 50C576.24 44.51 577.35 37.88 575 37.88C572.64 37.88 570.82 43.64 570.18 50C568.95 62.2 575.47 64.07 571.27 75C565.86 89.07 561.29 87.86 550.96 100C550.65 100.36 550.48 100 550 100C537.5 100 537.5 100 525 100C515.38 100 515.27 100.71 505.77 100C502.77 99.78 502.62 98.13 500 98.13C498.94 98.13 499.59 99.91 498.4 100C487.09 100.85 486.7 100 475 100C462.5 100 462.5 100 450 100C448.22 100 447.73 101.15 446.43 100C435.23 90.04 432.9 77.78 425 77.78C419.09 77.78 425.7 93.88 418.81 100C413.2 104.99 409.4 100 400 100C387.5 100 387.5 100 375 100C365.63 100 365.08 101.64 356.25 100C352.58 99.32 352.93 95.37 350 95.37C347.58 95.37 348.52 99.45 345.54 100C336.02 101.76 335.27 100 325 100C312.5 100 312.5 100 300 100C288.22 100 284.59 104.07 276.44 100C272.09 97.82 275.73 87.5 275 87.5C274.26 87.5 277.86 97.82 273.5 100C265.36 104.07 261.75 100 250 100C237.5 100 237.5 100 225 100C212.5 100 212.5 100 200 100C187.5 100 187.5 100 175 100C162.5 100 162.5 100 150 100C145.68 100 141.35 102.34 141.35 100C141.35 95.72 143.82 91.17 150 86.76C160.64 79.16 162.54 81.45 175 75.97C175.91 75.57 176.74 75.82 176.74 75C176.74 72.83 177.33 70.32 175 70C163.96 68.47 162.48 71.61 150 71.3C137.48 70.99 136.65 67.4 125 68.75C120.64 69.25 121.49 71.87 117.98 75C108.99 83.01 108.74 82.75 100 91.02C95.52 95.25 96.88 98.08 91.54 100C84.38 102.57 83.27 100 75 100C62.5 100 62.5 100 50 100C37.5 100 37.5 100 25 100C12.5 100 6.52 105.98 0 100C-5.98 94.52 -0.16 88.53 0 77.08C0.01 76.03 -0.44 75.68 0.34 75C12.06 64.72 11.28 59.08 25 55.16C36.11 51.98 37.42 60.38 50 60.8C62.42 61.21 63.52 60.75 75 56.82C79.28 55.35 81.52 53.16 81.52 50C81.52 47.25 77.41 48.26 75 45C68.15 35.76 70.63 33.33 63 25C58.13 19.68 56.82 17.7 50 17.7" stroke="rgba(158, 151, 67, 0.42)" stroke-width="2"></path><path d="M100 12.23C94.53 12.23 87.5 18.4 87.5 25C87.5 32.1 94.61 39.63 100 39.63C104.61 39.63 107.5 32.21 107.5 25C107.5 18.51 104.53 12.23 100 12.23" stroke="rgba(158, 151, 67, 0.42)" stroke-width="2"></path><path d="M300 18.44C294.97 18.44 290.09 21.53 290.09 25C290.09 28.67 294.95 32.72 300 32.72C305.38 32.72 310.94 28.66 310.94 25C310.94 21.52 305.4 18.44 300 18.44" stroke="rgba(158, 151, 67, 0.42)" stroke-width="2"></path><path d="M400 18.59C393.68 18.59 387.8 21.6 387.8 25C387.8 28.53 393.61 32.46 400 32.46C408.64 32.46 417.86 28.5 417.86 25C417.86 21.57 408.71 18.59 400 18.59" stroke="rgba(158, 151, 67, 0.42)" stroke-width="2"></path><path d="M525 19.49C521.32 19.49 518.85 22.21 518.85 25C518.85 27.85 521.28 30.77 525 30.77C533.28 30.77 542.86 27.83 542.86 25C542.86 22.19 533.33 19.49 525 19.49" stroke="rgba(158, 151, 67, 0.42)" stroke-width="2"></path><path d="M650 16.96C646.63 16.96 643.57 20.68 643.57 25C643.57 30.78 646.58 37.16 650 37.16C653.55 37.16 657.5 30.71 657.5 25C657.5 20.61 653.6 16.96 650 16.96" stroke="rgba(158, 151, 67, 0.42)" stroke-width="2"></path><path d="M200 49.54C199.06 49.54 198.08 49.74 198.08 50C198.08 50.27 199.07 50.61 200 50.61C200.6 50.61 201.14 50.27 201.14 50C201.14 49.74 200.59 49.54 200 49.54" stroke="rgba(158, 151, 67, 0.42)" stroke-width="2"></path><path d="M350 43.56C345.68 43.56 340.96 47.01 340.96 50C340.96 52.79 345.63 55.12 350 55.12C353.64 55.12 356.97 52.76 356.97 50C356.97 46.98 353.69 43.56 350 43.56" stroke="rgba(158, 151, 67, 0.42)" stroke-width="2"></path><path d="M425 31.25C418.05 32.12 416.55 40.5 416.55 50C416.55 60.98 417.99 72.06 425 72.22C434.72 72.43 437.19 60.86 450 50.74C451.25 49.75 453.13 50.94 453.13 50C453.13 48.48 452.15 47.26 450 45.83C438.08 37.89 434.78 30.03 425 31.25" stroke="rgba(158, 151, 67, 0.42)" stroke-width="2"></path><path d="M375 74.44C374.68 74.54 374.63 74.72 374.63 75C374.63 75.27 374.68 75.47 375 75.54C387.37 78.27 387.57 80.73 400 80.59C411.01 80.46 421.88 78.28 421.88 75C421.88 71.63 411.05 67.41 400 67.28C387.61 67.13 387.37 70.68 375 74.44" stroke="rgba(158, 151, 67, 0.42)" stroke-width="2"></path><path d="M675 68.06C673.13 68.06 671.15 71.8 671.15 75C671.15 77.2 673.11 78.85 675 78.85C676.82 78.85 678.57 77.17 678.57 75C678.57 71.77 676.84 68.06 675 68.06" stroke="rgba(158, 151, 67, 0.42)" stroke-width="2"></path><path d="M25 9.85C16.75 13 19.53 18.27 12.5 25C7.03 30.23 3.97 33.77 0 33.77C-2.28 33.77 0 29.39 0 25C0 12.5 -6.25 6.25 0 0C6.25 -6.25 12.5 0 25 0C37.5 0 37.5 0 50 0C62.5 0 75 -2.56 75 0C75 2.78 63.02 8.11 50 10.67C38.02 13.03 35.5 5.84 25 9.85" stroke="rgba(158, 151, 67, 0.42)" stroke-width="2"></path><path d="M115.31 25C114.46 12.2 100.42 7 103.13 0C105.26 -5.5 114.06 0 125 0C131.03 0 131.38 -1.47 137.07 0C143.88 1.76 143.3 3.78 150 6.47C162.27 11.39 164.45 17.11 175 15.22C182.51 13.88 178.91 4.38 186.11 0C191.41 -3.23 193.06 0 200 0C212.5 0 212.5 0 225 0C230.56 0 234.92 -3.82 236.11 0C238.81 8.68 229.02 14.78 232.77 25C235.97 33.72 241.02 37.88 250 37.88C260.63 37.88 268.4 34.36 271.98 25C275.65 15.42 263.41 8.91 264.49 0C264.92 -3.59 269.75 0 275 0C287.5 0 287.5 0 300 0C307.73 0 315.45 -2.4 315.45 0C315.45 2.91 307.78 5.4 300 10.63C289.2 17.9 278.3 17.4 278.3 25C278.3 33.04 288.95 41.91 300 41.91C311.78 41.91 312.41 33.82 323.96 25C324.91 24.28 324.58 23.96 325 22.83C329.26 11.46 325.92 6.77 333.33 0C338.42 -4.64 341.66 0 350 0C362.5 0 362.5 0 375 0C387.5 0 387.5 0 400 0C405.89 0 411.79 -2.26 411.79 0C411.79 3.03 406.71 6.53 400 10.58C388.32 17.64 387.27 16.03 375 22.22C372.99 23.24 373.46 24.03 371.43 25C360.96 29.97 360.05 28.35 350 34.09C338.16 40.85 327.66 42.62 327.66 50C327.66 56.9 339.34 55.57 350 62.65C358.16 68.07 365.3 68.78 365.3 75C365.3 81.28 357.3 80.94 350 87.65C343.7 93.44 345.19 96.5 338.1 100C332.69 102.67 331.55 100 325 100C312.5 100 312.5 100 300 100C294.23 100 288.46 103.45 288.46 100C288.46 92.73 293.63 88.81 300 78.57C301.4 76.31 304 76.82 304 75C304 73.11 302.49 72.3 300 71.15C287.99 65.6 285.86 60.41 275 61.59C268.07 62.34 267.25 67.25 264.42 75C260.25 86.45 266.02 91.29 261 100C258.81 103.79 255.5 100 250 100C237.5 100 237.5 100 225 100C212.5 100 212.5 100 200 100C187.5 100 187.5 100 175 100C165.57 100 156.15 103.45 156.15 100C156.15 95.49 165 91.21 175 84.09C182.56 78.71 183.83 80.44 191.28 75C196.33 71.32 194.95 65.85 200 65.85C207.46 65.85 208.5 69.92 216.3 75C221 78.06 221.1 82.14 225 82.14C228.08 82.14 230.01 79.18 230.26 75C230.97 63.11 229.18 62.31 226.92 50C226.55 47.96 226.84 47.12 225 46.3C213.38 41.1 212.82 39.7 200 37.96C187.82 36.31 186.03 35.68 175 39.52C168.75 41.7 170.91 45.58 165.44 50C158.41 55.68 158.53 57.83 150 59.72C138.31 62.32 136.94 61.64 125 58.98C115.16 56.78 108.57 57.43 106.45 50C103.72 40.44 116.12 37.2 115.31 25" stroke="rgba(158, 151, 67, 0.42)" stroke-width="2"></path><path d="M458.52 25C455.41 14.03 457.21 8.43 462.77 0C465.45 -4.07 468.88 0 475 0C481.68 0 483.38 -3.27 488.37 0C495.88 4.92 493.7 8.61 500 16.39C503.82 21.11 504.22 20.79 508.61 25C516.72 32.78 515.43 38.58 525 40.38C536.12 42.47 539.64 30.14 550 32.79C558.47 34.95 559.9 40.28 562.65 50C565.87 61.38 565.57 63.74 561.94 75C559.24 83.38 557.83 85.44 550 89.29C539.36 94.53 537.05 94.82 525 93.18C512.05 91.42 511.77 88.96 500 82.5C495.22 79.87 494.71 79.65 491.89 75C484.85 63.4 486.71 62.12 480.29 50C478.27 46.19 477.85 46.4 475 43.13C466.96 33.9 461.52 35.6 458.52 25" stroke="rgba(158, 151, 67, 0.42)" stroke-width="2"></path><path d="M525 10.29C518.55 7.79 514.71 3.01 514.71 0C514.71 -2.13 519.86 0 525 0C537.5 0 537.5 0 550 0C562.5 0 562.5 0 575 0C579.16 0 579.72 -1.73 583.33 0C592.22 4.25 590.61 9.31 600 11.96C611.44 15.19 614.54 7.82 625 11.76C631.86 14.34 631.34 17.63 634.64 25C639.9 36.75 636.39 39.13 642.11 50C644.07 53.72 647.35 50.76 650 54.17C657.07 63.26 661.54 65.46 661.54 75C661.54 81.39 657.1 84.39 650 86.03C638.83 88.61 636.72 86.9 625 83.45C617.97 81.38 618.74 79.25 612.5 75C606.24 70.74 605.38 71.66 600 66.43C592.52 59.16 591.55 59.22 586.78 50C580.83 38.5 583.14 37.3 578.57 25C577.25 21.46 578.28 19.63 575 18.33C563.99 13.97 562.55 15.71 550 13.69C537.55 11.69 536.19 14.63 525 10.29" stroke="rgba(158, 151, 67, 0.42)" stroke-width="2"></path><path d="M650 5.8C645.41 5.8 641.22 1.58 641.22 0C641.22 -1.32 645.61 0 650 0C656.02 0 662.04 -1.37 662.04 0C662.04 1.53 655.82 5.8 650 5.8" stroke="rgba(158, 151, 67, 0.42)" stroke-width="2"></path><path d="M667.92 25C668.6 17.66 671.1 11.29 675 11.29C679.16 11.29 678.51 19.05 684.04 25C691.01 32.49 694.92 30.21 700 38.16C702.9 42.71 700 44.08 700 50C700 62.5 700 62.5 700 75C700 80.91 702.55 86.82 700 86.82C696.3 86.82 692.33 81.98 687.5 75C679.83 63.91 682.09 61.72 675 50.69C674.06 49.22 671.88 51.62 671.43 50C668.34 38.77 666.81 37.01 667.92 25" stroke="rgba(158, 151, 67, 0.42)" stroke-width="2"></path><path d="M700 0.81C699.42 0.81 698.33 0.21 698.33 0C698.33 -0.19 699.44 -0.27 700 0C700.27 0.13 700.25 0.81 700 0.81" stroke="rgba(158, 151, 67, 0.42)" stroke-width="2"></path><path d="M367.21 50C367.21 40.21 367.76 31.16 375 29.35C384.16 27.06 388.34 34.44 400 41.79C404.71 44.76 407.75 45.91 407.75 50C407.75 54.06 405.05 56.46 400 58.09C388.68 61.74 385.77 63.22 375 60.56C369.37 59.17 367.21 55.82 367.21 50" stroke="rgba(158, 151, 67, 0.42)" stroke-width="2"></path><path d="M8.78 75C8.78 67.65 16.25 61.96 25 61.96C36.86 61.96 37.5 68.48 50 75C50 75 50 75 50 75C62.5 78.88 65.57 75.48 75 82.76C81.75 87.98 82.35 93.81 82.35 100C82.35 102.43 78.68 100 75 100C62.5 100 62.5 100 50 100C41.03 100 40.44 101.78 32.07 100C27.94 99.12 28 97.89 25 94.67C16.36 85.39 8.78 84 8.78 75" stroke="rgba(158, 151, 67, 0.42)" stroke-width="2"></path><path d="M84 75C84 68.43 93.54 58.33 100 58.33C105.05 58.33 107.02 67.46 107.02 75C107.02 78.92 104.07 81.25 100 81.25C92.56 81.25 84 79.89 84 75" stroke="rgba(158, 151, 67, 0.42)" stroke-width="2"></path><path d="M433.73 75C433.73 67.28 441.95 59.93 450 59.93C457.85 59.93 458.54 66.82 465.53 75C471.04 81.45 469.76 82.5 475 89.2C479.55 95 485.11 96.79 485.11 100C485.11 102.19 480.06 100 475 100C469.06 100 468.52 101.83 463.12 100C456.02 97.59 455.91 96.56 450 91.53C441.22 84.06 433.73 83.08 433.73 75" stroke="rgba(158, 151, 67, 0.42)" stroke-width="2"></path><path d="M366.67 100C366.67 96.62 369.11 91.39 375 89.13C385.78 85 389.07 84.05 400 87.23C407.75 89.48 412.37 96.23 412.37 100C412.37 102.62 406.18 100 400 100C387.5 100 387.5 100 375 100C370.84 100 366.67 102.06 366.67 100" stroke="rgba(158, 151, 67, 0.42)" stroke-width="2"></path><path d="M663.97 100C663.97 96.59 669.51 88.46 675 88.46C680.46 88.46 685.87 96.58 685.87 100C685.87 102.35 680.43 100 675 100C669.49 100 663.97 102.36 663.97 100" stroke="rgba(158, 151, 67, 0.42)" stroke-width="2"></path><path d="M50 3.65C43.62 3.65 37 0.93 37 0C37 -0.9 43.5 0 50 0C54.28 0 58.55 -0.87 58.55 0C58.55 0.95 54.39 3.65 50 3.65" stroke="rgba(158, 151, 67, 0.42)" stroke-width="2"></path><path d="M123.13 25C123.13 20.54 121.44 17.21 125 16.18C134.88 13.33 137.94 14.77 150 17.24C159.44 19.18 168 19.1 168 25C168 33.2 161.2 40.57 150 45.45C139.7 49.94 132.67 49.59 125 43.75C119.23 39.36 123.13 34.32 123.13 25" stroke="rgba(158, 151, 67, 0.42)" stroke-width="2"></path><path d="M192.5 25C190.98 14.87 192.79 10.8 196.03 0C196.54 -1.7 198.01 0 200 0C212.5 0 212.5 0 225 0C226.22 0 227.43 -1.07 227.43 0C227.43 8.65 228.92 11.55 225 19.44C222.71 24.05 220.4 23.5 215 25C207.9 26.97 207.47 26.39 200 26.39C196.22 26.39 192.96 28.06 192.5 25" stroke="rgba(158, 151, 67, 0.42)" stroke-width="2"></path><path d="M275 4.55C272.88 4.33 273.55 1.75 273.55 0C273.55 -0.53 274.27 0 275 0C287.5 0 287.5 0 300 0C302.04 0 304.09 -0.63 304.09 0C304.09 0.77 302.4 2.43 300 2.81C287.86 4.71 286.11 5.73 275 4.55" stroke="rgba(158, 151, 67, 0.42)" stroke-width="2"></path><path d="M350 23.61C343.01 22.54 343.25 9.26 343.25 0C343.25 -2.55 346.63 0 350 0C362.5 0 362.5 0 375 0C387.5 0 387.5 0 400 0C401.43 0 402.86 -0.55 402.86 0C402.86 0.73 401.85 2.24 400 2.56C387.92 4.67 386.14 0.17 375 4.86C361.14 10.7 358.89 24.97 350 23.61" stroke="rgba(158, 151, 67, 0.42)" stroke-width="2"></path><path d="M472.73 25C470.27 12.87 468.48 10.23 469.41 0C469.62 -2.27 472.21 0 475 0C478.05 0 479.91 -2.39 481.1 0C486.16 10.11 489.54 15.8 487.5 25C486.49 29.55 480.84 27.5 475 27.5C473.45 27.5 473.06 26.62 472.73 25" stroke="rgba(158, 151, 67, 0.42)" stroke-width="2"></path><path d="M525 1.1C524.25 1.1 523.9 0.32 523.9 0C523.9 -0.23 524.45 0 525 0C532.5 0 540 -0.27 540 0C540 0.28 532.3 1.1 525 1.1" stroke="rgba(158, 151, 67, 0.42)" stroke-width="2"></path><path d="M589.73 25C590.7 19.97 594.36 18.91 600 18.75C611.99 18.42 612.73 21.04 625 24.02C625.58 24.16 625.71 24.43 625.71 25C625.71 26.71 625.66 26.88 625 28.57C620.76 39.38 623.03 41.76 615.91 50C610.53 56.23 607.09 57.5 600 57.5C596.12 57.5 595.38 54.47 593.97 50C590.25 38.22 587.68 35.6 589.73 25" stroke="rgba(158, 151, 67, 0.42)" stroke-width="2"></path><path d="M238.94 50C239.47 45.02 244.18 44.19 250 44.19C259.63 44.19 269.35 43.78 269.83 50C270.55 59.18 258.93 61.62 252.4 75C249.01 81.94 251.42 90.63 250 90.63C248.57 90.63 248.81 82.7 246.71 75C243.28 62.38 237.83 60.43 238.94 50" stroke="rgba(158, 151, 67, 0.42)" stroke-width="2"></path><path d="M698.08 50C698.22 48.99 699.32 49.12 700 49.12C700.28 49.12 700 49.56 700 50C700 62.5 700 62.5 700 75C700 76.69 700.73 78.38 700 78.38C698.94 78.38 696.59 77.33 696.43 75C695.63 63.14 696.43 61.93 698.08 50" stroke="rgba(158, 151, 67, 0.42)" stroke-width="2"></path><path d="M17.23 75C17.23 71.48 20.81 68.75 25 68.75C30.68 68.75 36.98 71.32 36.98 75C36.98 79.16 30.48 84.43 25 84.43C20.61 84.43 17.23 79.32 17.23 75" stroke="rgba(158, 151, 67, 0.42)" stroke-width="2"></path><path d="M330 75C330 72.56 340.54 70.18 350 70.18C353.53 70.18 355.97 72.57 355.97 75C355.97 77.45 353.55 79.94 350 79.94C340.56 79.94 330 77.44 330 75" stroke="rgba(158, 151, 67, 0.42)" stroke-width="2"></path><path d="M443.65 75C443.65 71.99 446.86 69.12 450 69.12C453.06 69.12 456.06 71.99 456.06 75C456.06 78.15 453.07 81.45 450 81.45C446.86 81.45 443.65 78.15 443.65 75" stroke="rgba(158, 151, 67, 0.42)" stroke-width="2"></path><path d="M629.17 75C629.17 73.67 640.42 71.53 650 71.53C651.8 71.53 651.92 73.41 651.92 75C651.92 76.07 651.28 76.84 650 76.84C639.91 76.84 629.17 76.32 629.17 75" stroke="rgba(158, 151, 67, 0.42)" stroke-width="2"></path><path d="M45.65 100C45.65 98.09 46.93 93.94 50 93.94C56.8 93.94 65.38 98.43 65.38 100C65.38 101.46 57.69 100 50 100C47.83 100 45.65 101.12 45.65 100" stroke="rgba(158, 151, 67, 0.42)" stroke-width="2"></path><path d="M165.77 100C165.77 97.79 169.78 92.21 175 92.21C183.77 92.21 193.75 97.98 193.75 100C193.75 101.87 184.38 100 175 100C170.38 100 165.77 101.69 165.77 100" stroke="rgba(158, 151, 67, 0.42)" stroke-width="2"></path><path d="M301.25 100C301.25 94.12 316.25 79.35 325 79.35C330.95 79.35 330.65 91.83 330.65 100C330.65 102.16 327.83 100 325 100C313.13 100 301.25 104.44 301.25 100" stroke="rgba(158, 151, 67, 0.42)" stroke-width="2"></path><path d="M379.46 100C379.46 98.44 390.53 93.88 400 93.88C403.77 93.88 405.93 98.2 405.93 100C405.93 101.26 402.97 100 400 100C389.73 100 379.46 101.5 379.46 100" stroke="rgba(158, 151, 67, 0.42)" stroke-width="2"></path><path d="M673.16 100C673.16 99.43 674.08 98.08 675 98.08C675.91 98.08 676.81 99.43 676.81 100C676.81 100.39 675.9 100 675 100C674.08 100 673.16 100.39 673.16 100" stroke="rgba(158, 151, 67, 0.42)" stroke-width="2"></path></g><defs><mask id="SvgjsMask1004"><rect width="700" height="100" fill="#ffffff"></rect></mask></defs></svg>