<svg xmlns="http://www.w3.org/2000/svg" version="1.1" xmlns:xlink="http://www.w3.org/1999/xlink" xmlns:svgjs="http://svgjs.dev/svgjs" width="700" height="100" preserveAspectRatio="none" viewBox="0 0 700 100"><g clip-path="url(&quot;#SvgjsClipPath1043&quot;)" fill="none"><rect width="700" height="100" x="0" y="0" fill="rgba(255, 249, 182, 1)"></rect><circle r="16.665" cx="-3.09" cy="12.09" stroke="#a2971e" stroke-opacity="0.54" stroke-width="2"></circle><circle r="16.665" cx="77.69" cy="58.02" stroke="#a2971e" stroke-opacity="0.54" stroke-width="2"></circle><circle r="16.665" cx="126.6" cy="125.41" stroke="#a2971e" stroke-opacity="0.54" stroke-width="2"></circle><circle r="16.665" cx="199.38" cy="211.32" stroke="#a2971e" stroke-opacity="0.54" stroke-width="2"></circle><circle r="16.665" cx="273.17" cy="267.84" stroke="#a2971e" stroke-opacity="0.54" stroke-width="2"></circle><circle r="16.665" cx="332.71" cy="327.07" stroke="#a2971e" stroke-opacity="0.54" stroke-width="2"></circle><circle r="16.665" cx="409.6" cy="410.85" stroke="#a2971e" stroke-opacity="0.54" stroke-width="2"></circle><circle r="16.665" cx="453.5" cy="477.29" stroke="#a2971e" stroke-opacity="0.54" stroke-width="2"></circle><circle r="16.665" cx="521.15" cy="547.75" stroke="#a2971e" stroke-opacity="0.54" stroke-width="2"></circle><circle r="16.665" cx="586.5" cy="594.47" stroke="#a2971e" stroke-opacity="0.54" stroke-width="2"></circle><circle r="32.89" cx="140.09" cy="88.18" stroke="#a2971e" stroke-opacity="0.54" stroke-width="2"></circle><circle r="13.42" cx="0.03" cy="70.47" stroke="#a2971e" stroke-opacity="0.54" stroke-width="2"></circle><circle r="9.44" cx="516.21" cy="79.94" stroke="#a2971e" stroke-opacity="0.54" stroke-width="2"></circle><circle r="21.72" cx="176.29" cy="67.37" stroke="#a2971e" stroke-opacity="0.54" stroke-width="2"></circle><circle r="11.68" cx="441.55" cy="39.75" stroke="#a2971e" stroke-opacity="0.54" stroke-width="2"></circle><circle r="13.41" cx="271.96" cy="30.02" stroke="#a2971e" stroke-opacity="0.54" stroke-width="2"></circle><circle r="14.035" cx="141.52" cy="19.74" stroke="#a2971e" stroke-opacity="0.54" stroke-width="2"></circle><circle r="21.275" cx="558.03" cy="76.3" stroke="#a2971e" stroke-opacity="0.54" stroke-width="2"></circle><circle r="9.815" cx="399.35" cy="71.11" stroke="#a2971e" stroke-opacity="0.54" stroke-width="2"></circle><circle r="11.6" cx="523.69" cy="50.1" stroke="#a2971e" stroke-opacity="0.54" stroke-width="2"></circle><circle r="29.48" cx="688.33" cy="14.98" stroke="#a2971e" stroke-opacity="0.54" stroke-width="2"></circle><circle r="8.92" cx="622.85" cy="14.67" stroke="#a2971e" stroke-opacity="0.54" stroke-width="2"></circle><circle r="11.76" cx="358.69" cy="47.11" stroke="#a2971e" stroke-opacity="0.54" stroke-width="2"></circle><circle r="20.43" cx="510.59" cy="13.96" stroke="#a2971e" stroke-opacity="0.54" stroke-width="2"></circle><circle r="16.12" cx="103.44" cy="24.79" stroke="#a2971e" stroke-opacity="0.54" stroke-width="2"></circle><circle r="27.655" cx="295.22" cy="7.75" stroke="#a2971e" stroke-opacity="0.54" stroke-width="2"></circle><circle r="17.245" cx="279.83" cy="96.35" stroke="#a2971e" stroke-opacity="0.54" stroke-width="2"></circle><circle r="20.89" cx="103.69" cy="58.69" stroke="#a2971e" stroke-opacity="0.54" stroke-width="2"></circle><circle r="17.265" cx="687.38" cy="82.31" stroke="#a2971e" stroke-opacity="0.54" stroke-width="2"></circle><circle r="19.385" cx="297.46" cy="34.28" stroke="#a2971e" stroke-opacity="0.54" stroke-width="2"></circle></g><defs><clipPath id="SvgjsClipPath1043"><rect width="700" height="100" x="0" y="0"></rect></clipPath></defs></svg>